<?xml version="1.0" standalone="no"?><!DOCTYPE svg PUBLIC "-//W3C//DTD SVG 1.1//EN" "http://www.w3.org/Graphics/SVG/1.1/DTD/svg11.dtd"><svg t="1738700852412" class="icon" viewBox="0 0 1057 1024" version="1.1" xmlns="http://www.w3.org/2000/svg" p-id="23874" data-spm-anchor-id="a313x.search_index.0.i53.46b13a81rM646g" xmlns:xlink="http://www.w3.org/1999/xlink" width="206.4453125" height="200"><path d="M528.939264 527.872c-32.256 0-65.024 3.584-97.28 10.24v-83.968c9.216-3.584 17.92-6.144 27.136-9.216 31.232-10.24 30.208-40.448 30.72-109.056v-186.88c0-29.696 78.848-29.696 78.848 0v186.368c0.512 68.608-1.024 98.816 30.72 109.056 9.216 3.072 18.432 6.144 27.136 9.216v84.48c-32.256-6.656-65.024-10.24-97.28-10.24zM965.163264 932.352c-5.632 0-11.264-0.512-16.896-1.536l-221.184-34.304c-57.344-7.168-91.648-49.664-91.648-112.64v-447.488c-0.512-38.4 14.336-60.928 26.624-73.216 17.408-16.896 41.472-25.6 69.632-25.088 65.024 2.048 147.456 73.728 214.016 186.88 42.496 72.192 113.664 220.672 111.616 409.088v1.536c-2.56 41.984-20.992 65.024-36.352 77.312-14.848 12.8-34.816 19.456-55.808 19.456z m-236.544-632.832c-7.68 0-17.408 1.536-23.552 7.168-7.168 7.168-8.704 19.968-8.704 29.184v448c0 41.984 20.48 49.664 37.888 51.712h1.024l221.696 34.304c7.68 1.024 17.92 1.024 25.6-5.12s12.288-17.408 13.312-32.256c1.024-126.464-36.352-263.68-102.912-376.32-59.904-101.376-127.488-155.648-163.328-157.184 0 0.512-0.512 0.512-1.024 0.512zM92.715264 932.864c-20.992 0-40.96-6.656-56.32-19.456-14.848-12.288-33.792-35.328-36.352-77.312v-1.536c-2.048-188.416 69.12-337.408 111.616-409.6 67.072-113.664 148.992-185.344 214.016-187.392 28.16-0.512 52.736 7.68 69.632 25.088 12.288 12.288 27.136 34.816 26.624 73.728V783.36c0 63.488-34.304 105.472-91.648 112.64l-221.184 34.816c-5.12 1.536-10.752 2.048-16.384 2.048z m-31.232-99.328c1.024 14.848 5.632 26.112 13.312 32.256 8.192 6.144 18.432 6.144 25.6 5.12l222.72-34.816c17.92-2.048 37.888-10.24 37.888-51.712v-447.488c0-9.728-1.024-22.528-8.704-29.696-6.656-6.144-16.896-7.168-25.088-7.168-35.84 1.024-102.912 55.296-162.816 157.184-66.56 112.128-103.936 249.344-102.912 376.32z" fill="#f4ea2a" p-id="23875" data-spm-anchor-id="a313x.search_index.0.i52.46b13a81rM646g" class=""></path></svg>