<?xml version="1.0" standalone="no"?><!DOCTYPE svg PUBLIC "-//W3C//DTD SVG 1.1//EN" "http://www.w3.org/Graphics/SVG/1.1/DTD/svg11.dtd"><svg t="1738703510986" class="icon" viewBox="0 0 1024 1024" version="1.1" xmlns="http://www.w3.org/2000/svg" p-id="2424" xmlns:xlink="http://www.w3.org/1999/xlink" width="200" height="200"><path d="M334.9 347.4C288.2 363.7 250 425 221.8 518.5c-55.6 183.8-50.6 281-30.9 313 6.6 8.6 17.6 10.8 18.4 10.8 48.3 1.1 109.9 2.7 160.2 4.8 22.9-14.1 44.8-37 44.9-93.1 0.3-21.4 18.9-38 39.1-38.5h1.3c22.4-0.5 40.1 16.7 40.6 39.1C497.9 882 400.8 923.9 386 926.7l-5.1 0.5c-2 0-20.2 0.5-45.7 0.5-44.9 0-112.3-1.4-152-9-24.4-4.6-44.8-19.3-59.1-42.3-39.2-63.3-35.7-192.1 20-379.8 35.4-123.5 93-198.3 165.4-226.1 43.9-16.9 87.9-7.2 119.4 5.4 32.5 13 40.9 76.3-14.3 79.8-3.5 0.2-6 0.3-13.8-2.7-4.5-1.8-10.7-5.2-17.8-7.6-15.1-4-29.9-5.5-48.1 2z" fill="#EEB059" p-id="2425"></path><path d="M451.6 662.2c-22 0-39.8-17.5-39.8-39.2V480c0-21.6 17.8-39.2 39.8-39.2 22 0 39.8 17.5 39.8 39.2v143c0 21.7-17.8 39.2-39.8 39.2z" fill="#EEB059" p-id="2426"></path><path d="M691.6 347.4c46.7 16.3 84.9 77.6 113.1 171.1 55.6 183.8 50.6 281 30.9 313-6.6 8.6-17.6 10.8-18.4 10.8-48.3 1.1-109.9 2.7-160.2 4.8-22.9-14.1-44.8-37-44.9-93.1-0.3-21.4-18.9-38-39.1-38.5h-1.3c-22.4-0.5-40.1 16.7-40.6 39.1-2.5 127.4 94.6 169.3 109.4 172.1l5.1 0.5c2 0 20.2 0.5 45.7 0.5 44.9 0 112.3-1.4 152-9 24.4-4.6 44.8-19.3 59.1-42.3 39.2-63.3 35.7-192.1-20-379.8-35.4-123.5-93-198.3-165.4-226.1-43.9-16.9-87.9-7.2-119.4 5.4-32.5 13-40.9 76.3 14.3 79.8 3.5 0.2 6 0.3 13.8-2.7 4.5-1.8 10.7-5.2 17.8-7.6 15.1-4 29.9-5.5 48.1 2z" fill="#EEB059" p-id="2427"></path><path d="M574.9 662.2c22 0 39.8-17.5 39.8-39.2V480c0-21.6-17.8-39.2-39.8-39.2-22 0-39.8 17.5-39.8 39.2v143c0 21.7 17.8 39.2 39.8 39.2zM517.3 416.9c22 0 39.8-17.5 39.8-39.2V138.2c0-21.6-17.8-39.2-39.8-39.2-22 0-39.8 17.5-39.8 39.2v239.5c0 21.6 17.8 39.2 39.8 39.2z" fill="#EEB059" p-id="2428"></path></svg>