<?xml version="1.0" standalone="no"?><!DOCTYPE svg PUBLIC "-//W3C//DTD SVG 1.1//EN" "http://www.w3.org/Graphics/SVG/1.1/DTD/svg11.dtd"><svg t="1738044618065" class="icon" viewBox="0 0 1024 1024" version="1.1" xmlns="http://www.w3.org/2000/svg" p-id="36896" xmlns:xlink="http://www.w3.org/1999/xlink" width="200" height="200"><path d="M512 512m-512 0a512 512 0 1 0 1024 0 512 512 0 1 0-1024 0Z" fill="#d81e06" p-id="36897" data-spm-anchor-id="a313x.search_index.0.i31.16383a81Ry3oLP" class="selected"></path><path d="M631.936 700.586667h163.968v40.576h-567.850667v-40.576h346.496a30.378667 30.378667 0 0 1-1.706666-10.154667v-140.586667l-44.629334 25.6a30.421333 30.421333 0 0 1-38.656-6.954666 40.448 40.448 0 0 1-13.269333-8.874667l-136.533333-136.533333-29.482667 43.733333 54.954667 81.450667a20.309333 20.309333 0 1 1-33.664 22.656l-56.704-84.053334a47.744 47.744 0 0 1-6.357334-30.762666l53.845334-79.872a40.576 40.576 0 0 1 52.992-27.050667l106.666666-11.221333 78.976-84.693334a20.352 20.352 0 1 1 29.866667 27.648l-79.616 85.333334a20.266667 20.266667 0 0 1-16.042667 11.093333l-78.08 8.192 116.309334 116.309333 87.210666-50.346666a30.421333 30.421333 0 0 1 39.68 8.277333l104.96 84.992a30.464 30.464 0 1 1-38.4 47.274667l-94.933333-76.8-12.330667 7.125333a30.378667 30.378667 0 0 1 13.909334 25.6v141.952a30.506667 30.506667 0 0 1-1.706667 10.154667z m-312.618667-365.056a50.688 50.688 0 1 1 50.688-50.688 50.688 50.688 0 0 1-50.688 50.688z" fill="#FFFFFF" p-id="36898"></path></svg>