<?xml version="1.0" standalone="no"?><!DOCTYPE svg PUBLIC "-//W3C//DTD SVG 1.1//EN" "http://www.w3.org/Graphics/SVG/1.1/DTD/svg11.dtd"><svg t="1738699167142" class="icon" viewBox="0 0 1024 1024" version="1.1" xmlns="http://www.w3.org/2000/svg" p-id="5460" xmlns:xlink="http://www.w3.org/1999/xlink" width="200" height="200"><path d="M688.014222 128c71.111111 0 130.673778 26.282667 178.631111 78.961778 48.071111 52.622222 72.021333 115.143111 72.021334 187.733333 0 12.743111-0.682667 25.429333-2.161778 37.888a216.746667 216.746667 0 0 1-7.395556 36.750222h-266.695111l-72.533333-108.771555a40.163556 40.163556 0 0 0-14.961778-13.880889 41.130667 41.130667 0 0 0-45.340444 3.185778 43.463111 43.463111 0 0 0-15.416889 21.333333L456.476444 543.971556l-37.319111-55.409778a40.220444 40.220444 0 0 0-14.961777-13.880889 41.130667 41.130667 0 0 0-20.252445-5.347556H94.947556a217.827556 217.827556 0 0 1-7.452445-36.807111 324.152889 324.152889 0 0 1-2.161778-36.807111c0-73.216 23.836444-136.192 71.452445-188.814222 47.672889-52.622222 107.064889-78.904889 178.176-78.904889 34.133333 0 66.275556 6.769778 96.540444 20.252444A257.706667 257.706667 0 0 1 512 204.8c22.755556-24.177778 49.265778-43.008 79.473778-56.547556a233.870222 233.870222 0 0 1 96.540444-20.252444zM512 896c-12.8 0-25.031111-2.275556-36.807111-6.940444a91.761778 91.761778 0 0 1-31.459556-20.821334L157.866667 581.404444a193.877333 193.877333 0 0 1-22.414223-26.680888h225.109334l72.476444 108.771555c3.584 5.688889 8.533333 10.353778 14.961778 13.880889a41.073778 41.073778 0 0 0 20.252444 5.347556c9.272889 0 17.806222-2.844444 25.6-8.533334a42.666667 42.666667 0 0 0 16.042667-21.333333l57.571556-172.771556 36.295111 55.409778c4.266667 5.688889 9.557333 10.353778 15.928889 13.880889a41.130667 41.130667 0 0 0 20.309333 5.347556h247.466667l-10.695111 12.8-10.638223 12.8-286.947555 288.028444a93.297778 93.297778 0 0 1-30.890667 20.821333c-11.377778 4.608-23.495111 6.940444-36.295111 6.883556z" fill="#07830f" p-id="5461" data-spm-anchor-id="a313x.search_index.0.i19.46b13a81rM646g" class=""></path></svg>