<?xml version="1.0" standalone="no"?><!DOCTYPE svg PUBLIC "-//W3C//DTD SVG 1.1//EN" "http://www.w3.org/Graphics/SVG/1.1/DTD/svg11.dtd"><svg t="1738696882270" class="icon" viewBox="0 0 1024 1024" version="1.1" xmlns="http://www.w3.org/2000/svg" p-id="915" xmlns:xlink="http://www.w3.org/1999/xlink" width="200" height="200"><path d="M393.67111147 402.77333333c0-9.10222187-4.55111147-18.2044448-18.2044448-18.2044448-13.65333333 0-18.2044448 9.10222187-18.2044448 18.2044448v191.14666667c0 18.2044448-13.65333333 27.30666667-31.85777707 27.30666667h-4.55111147c-18.2044448 0-31.85777813-13.65333333-31.85777813-31.85777814v-227.5555552c0-59.1644448 50.06222187-104.6755552 104.67555627-104.6755552h227.5555552c59.1644448 0 109.22666667 50.06222187 109.22666666 109.22666667v227.5555552c0 18.2044448-13.65333333 31.85777813-31.85777813 31.85777813-18.2044448 0-31.85777813-13.65333333-31.85777707-27.30666666V402.77333333c0-9.10222187-9.10222187-18.2044448-18.2044448-18.2044448-13.65333333 0-18.2044448 9.10222187-18.2044448 18.2044448v541.58222187c0 27.30666667-22.7555552 45.51111147-45.5111104 45.51111147s-45.51111147-22.7555552-45.51111146-45.51111147v-332.2311104c0-9.10222187-9.10222187-18.2044448-18.2044448-18.2044448h-22.7555552c-9.10222187 0-18.2044448 9.10222187-18.2044448 18.2044448v332.2311104c0 27.30666667-22.7555552 45.51111147-45.5111104 45.51111147-27.30666667 0-45.51111147-22.7555552-45.51111147-45.51111147 4.55111147 0 4.55111147-541.58222187 4.55111147-541.58222187z m127.4311104-368.64c54.61333333 0 100.1244448 45.51111147 100.1244448 100.1244448S575.7155552 238.93333333 521.10222187 238.93333333 416.42666667 193.42222187 416.42666667 138.80888853s45.51111147-104.6755552 104.6755552-104.6755552z" p-id="916"></path></svg>