<?xml version="1.0" standalone="no"?><!DOCTYPE svg PUBLIC "-//W3C//DTD SVG 1.1//EN" "http://www.w3.org/Graphics/SVG/1.1/DTD/svg11.dtd"><svg t="1738701954452" class="icon" viewBox="0 0 1024 1024" version="1.1" xmlns="http://www.w3.org/2000/svg" p-id="60405" data-spm-anchor-id="a313x.search_index.0.i94.46b13a81rM646g" xmlns:xlink="http://www.w3.org/1999/xlink" width="200" height="200"><path d="M511.99928 300.786587c-116.464227 0-211.214413 94.750185-211.214413 211.214413s94.750185 211.214413 211.214413 211.214413S723.213693 628.465227 723.213693 512.001s-94.750185-211.214413-211.214413-211.214413z m0 389.252761c-98.172192 0-178.038348-79.868156-178.038348-178.038348s79.868156-178.038348 178.038348-178.038348 178.038348 79.868156 178.038348 178.038348-79.866156 178.038348-178.038348 178.038348z" fill="#ea9518" p-id="60406" data-spm-anchor-id="a313x.search_index.0.i95.46b13a81rM646g" class="selected"></path><path d="M608.269468 469.894918a16.584032 16.584032 0 0 0-21.846043-8.540017 16.586032 16.586032 0 0 0-8.542016 21.846043 71.380139 71.380139 0 0 1 5.996011 28.798056c0 39.636077-32.246063 71.88014-71.88014 71.88014-39.634077 0-71.87614-32.244063-71.87614-71.88014s32.246063-71.88014 71.88014-71.88014c10.01202 0 19.694038 2.014004 28.776056 5.986011a16.580032 16.580032 0 0 0 21.844043-8.550016 16.584032 16.584032 0 0 0-8.550017-21.844043c-13.300026-5.816011-27.456054-8.766017-42.072082-8.766017-57.926113 0-105.054205 47.128092-105.054205 105.054205s47.128092 105.054205 105.054205 105.054205 105.054205-47.128092 105.054205-105.054205c-0.002-14.628029-2.956006-28.794056-8.784017-42.104082zM370.279003 194.45038l-27.092053-82.938162a16.586032 16.586032 0 1 0-31.534061 10.30202l27.090053 82.938162a16.592032 16.592032 0 0 0 15.76403 11.440022 16.588032 16.588032 0 0 0 15.772031-21.742042zM229.812729 243.604476L197.682666 197.328385a16.590032 16.590032 0 0 0-27.250053 18.924037l32.130063 46.274091a16.568032 16.568032 0 0 0 13.640026 7.128014 16.590032 16.590032 0 0 0 13.610027-26.050051zM511.99928 53.080104a16.588032 16.588032 0 0 0-16.588032 16.588032v106.160207a16.588032 16.588032 0 0 0 33.176064 0v-106.160207a16.588032 16.588032 0 0 0-16.588032-16.588032zM103.882483 329.618644l-22.116043-23.592046a16.588032 16.588032 0 0 0-24.202048 22.692044l22.116044 23.590046a16.538032 16.538032 0 0 0 12.104023 5.24401 16.524032 16.524032 0 0 0 11.342022-4.488008 16.586032 16.586032 0 0 0 0.756002-23.446046zM701.735651 100.898197a16.588032 16.588032 0 0 0-20.918041 10.616021l-27.092053 82.938162a16.582032 16.582032 0 0 0 15.770031 21.742042 16.596032 16.596032 0 0 0 15.76403-11.440022l27.092053-82.938162a16.586032 16.586032 0 0 0-10.61602-20.918041zM849.401939 193.164377a16.586032 16.586032 0 0 0-23.086045 4.162008L794.183831 243.600476a16.592032 16.592032 0 0 0 13.610027 26.052051 16.572032 16.572032 0 0 0 13.640026-7.128014l32.134063-46.274091a16.588032 16.588032 0 0 0-4.166008-23.086045zM965.678166 305.268596a16.586032 16.586032 0 0 0-23.446046 0.756002l-22.116043 23.592046a16.586032 16.586032 0 0 0 0.756002 23.446046 16.510032 16.510032 0 0 0 11.342022 4.490008c4.424009 0 8.840017-1.760003 12.104023-5.24401l22.116044-23.592046a16.588032 16.588032 0 0 0-0.756002-23.448046z" fill="#ea9518" p-id="60407" data-spm-anchor-id="a313x.search_index.0.i96.46b13a81rM646g" class="selected"></path><path d="M1020.364273 501.63698c-2.220004-2.776005-55.420108-68.762134-144.546282-135.606265-82.734162-62.050121-213.012416-136.018266-363.818711-136.018266S230.914731 303.980594 148.180569 366.030715c-89.126174 66.846131-142.328278 132.832259-144.546282 135.606265a16.592032 16.592032 0 0 0 0 20.72604c2.218004 2.776005 55.420108 68.762134 144.546282 135.608265 82.734162 62.050121 213.012416 136.018266 363.818711 136.018266s281.084549-73.966144 363.818711-136.018266c89.126174-66.846131 142.328278-132.832259 144.546282-135.606265a16.588032 16.588032 0 0 0 0-20.72804z m-164.450321 129.792253c-78.698154 59.024115-202.246395 129.382253-343.914672 129.382253-141.362276 0-264.670517-70.076137-343.22267-128.862252-65.728128-49.192096-112.038219-98.958193-130.436255-119.956234 18.300036-20.904041 64.244125-70.300137 129.742253-119.424233 78.698154-59.024115 202.246395-129.382253 343.914672-129.382253 141.362276 0 264.670517 70.076137 343.22267 128.862252 65.728128 49.192096 112.036219 98.956193 130.436255 119.956234-18.298036 20.906041-64.244125 70.302137-129.742253 119.424233zM712.351671 902.183762l-27.094053-82.938162a16.584032 16.584032 0 0 0-20.91804-10.616021 16.588032 16.588032 0 0 0-10.616021 20.918041l27.092053 82.938162a16.592032 16.592032 0 0 0 15.764031 11.440023 16.588032 16.588032 0 0 0 15.77203-21.742043zM853.569947 807.749578l-32.134063-46.274091a16.588032 16.588032 0 0 0-27.250053 18.924037l32.134063 46.274091a16.568032 16.568032 0 0 0 13.640027 7.128014 16.504032 16.504032 0 0 0 9.446018-2.966006 16.590032 16.590032 0 0 0 4.164008-23.086045zM511.99928 831.585624a16.588032 16.588032 0 0 0-16.588032 16.588033v106.160207a16.588032 16.588032 0 0 0 33.176064 0v-106.160207a16.590032 16.590032 0 0 0-16.588032-16.588033zM966.436168 695.281358l-22.116044-23.590046a16.586032 16.586032 0 0 0-23.446045-0.756002 16.586032 16.586032 0 0 0-0.756002 23.446046l22.116043 23.592046a16.542032 16.542032 0 0 0 12.104024 5.242011 16.592032 16.592032 0 0 0 12.098024-27.934055zM359.658982 808.631579a16.586032 16.586032 0 0 0-20.91804 10.616021l-27.092053 82.938162a16.586032 16.586032 0 0 0 15.77203 21.742043 16.596032 16.596032 0 0 0 15.764031-11.440023l27.092053-82.938162a16.586032 16.586032 0 0 0-10.618021-20.918041zM225.650721 757.311479a16.588032 16.588032 0 0 0-23.086045 4.162008l-32.134063 46.274091a16.588032 16.588032 0 0 0 4.164008 23.086045 16.504032 16.504032 0 0 0 9.446018 2.966006 16.572032 16.572032 0 0 0 13.640027-7.128014l32.134063-46.274091a16.590032 16.590032 0 0 0-4.164008-23.086045zM103.126481 670.93731a16.582032 16.582032 0 0 0-23.446045 0.754002l-22.116044 23.592046a16.588032 16.588032 0 0 0 24.202048 22.692044l22.116043-23.592046a16.586032 16.586032 0 0 0-0.756002-23.446046z" fill="#ea9518" p-id="60408" data-spm-anchor-id="a313x.search_index.0.i93.46b13a81rM646g" class="selected"></path></svg>