<?xml version="1.0" standalone="no"?><!DOCTYPE svg PUBLIC "-//W3C//DTD SVG 1.1//EN" "http://www.w3.org/Graphics/SVG/1.1/DTD/svg11.dtd"><svg t="1738044052568" class="icon" viewBox="0 0 1024 1024" version="1.1" xmlns="http://www.w3.org/2000/svg" p-id="17680" xmlns:xlink="http://www.w3.org/1999/xlink" width="200" height="200"><path d="M505.581714 162.413714m-107.556571 0a107.556571 107.556571 0 1 0 215.113143 0 107.556571 107.556571 0 1 0-215.113143 0Z" fill="#f4ea2a" p-id="17681"></path><path d="M493.714286 292.571429a124.708571 124.708571 0 0 1 124.672 127.963428l-2.614857 100.077714-91.373715 152.740572 43.794286 48.438857 50.944-33.353143v0.658286A125.458286 125.458286 0 0 1 493.714286 817.078857V292.571429z" fill="#f4ea2a" opacity=".2" p-id="17682"></path><path d="M385.938286 673.353143a110.683429 110.683429 0 0 0 221.293714 4.132571l0.073143-4.132571h47.542857a158.226286 158.226286 0 0 1-316.379429 4.754286l-0.073142-4.754286h47.542857z m110.683428-409.216a158.226286 158.226286 0 0 1 158.171429 153.472l0.054857 4.754286v102.546285h-47.542857v-102.546285a110.683429 110.683429 0 0 0-221.275429-4.150858l-0.091428 4.150858v100.224h-47.542857v-100.224a158.226286 158.226286 0 0 1 158.226285-158.226286z" fill="#f4ea2a" p-id="17683"></path><path d="M268.032 591.067429a95.488 95.488 0 0 0-73.526857 113.243428l40.996571 192.896a95.488 95.488 0 0 0 186.788572-39.698286l-40.996572-192.914285a95.488 95.488 0 0 0-113.261714-73.508572z m9.892571 46.500571a47.945143 47.945143 0 0 1 56.868572 36.937143l40.996571 192.877714a47.945143 47.945143 0 1 1-93.787428 19.931429L241.005714 694.436571a47.945143 47.945143 0 0 1 36.918857-56.868571zM743.131429 591.067429a95.488 95.488 0 0 1 73.545142 113.243428L775.68 897.206857a95.488 95.488 0 0 1-186.788571-39.698286l40.996571-192.914285a95.488 95.488 0 0 1 113.261714-73.508572z m-9.874286 46.500571a47.945143 47.945143 0 0 0-56.868572 36.937143l-40.996571 192.877714a47.945143 47.945143 0 0 0 93.787429 19.931429l40.996571-192.877715a47.945143 47.945143 0 0 0-36.918857-56.868571z" fill="#f4ea2a" p-id="17684"></path><path d="M667.446857 272.969143a77.549714 77.549714 0 0 0-126.262857 12.873143 23.771429 23.771429 0 0 0 40.173714 25.307428l1.298286-2.066285a30.006857 30.006857 0 0 1 46.866286-7.076572l2.011428 2.102857 139.428572 160.859429 2.413714 2.925714a65.865143 65.865143 0 0 1-27.849143 101.997714l-4.242286 1.499429-41.161142 12.909714-5.174858 1.755429a149.266286 149.266286 0 0 0-87.04 82.102857l-2.048 5.046857-5.357714 14.006857-0.932571 2.285715a30.006857 30.006857 0 0 1-56.228572-20.534858l0.859429-2.596571 5.485714-14.336 2.267429-5.686857a209.298286 209.298286 0 0 1 124.8-117.522286l5.869714-1.938286 14.628571-4.589714a23.771429 23.771429 0 0 0 12.306286-36.352l-1.481143-1.901714-55.369143-63.872a23.771429 23.771429 0 0 0-37.522285 29.092571l1.590857 2.048 32.237714 37.156572a257.078857 257.078857 0 0 0-138.349714 133.595428l-2.742857 6.363429-2.505143 6.308571-5.613714 14.628572a77.549714 77.549714 0 0 0 44.690285 100.169143 77.641143 77.641143 0 0 0 97.005715-37.632l1.682285-3.492572 1.462857-3.565714 5.613715-14.628572a101.613714 101.613714 0 0 1 55.734857-57.490285l4.534857-1.755429 4.278857-1.444571 40.704-12.763429a113.408 113.408 0 0 0 40.338286-22.509714c44.617143-38.674286 51.876571-104.795429 17.371428-152.466286l-2.834285-3.730286-3.108572-3.785142-139.830857-161.298286z" fill="#f4ea2a" p-id="17685"></path><path d="M326.601143 272.969143a77.549714 77.549714 0 0 1 126.281143 12.873143 23.771429 23.771429 0 0 1-40.192 25.307428l-1.28-2.066285a30.006857 30.006857 0 0 0-46.866286-7.076572l-2.011429 2.102857L223.085714 464.969143l-2.413714 2.925714a65.865143 65.865143 0 0 0 27.849143 101.997714l4.260571 1.499429 41.142857 12.909714 5.193143 1.755429a149.266286 149.266286 0 0 1 87.04 82.102857l2.048 5.046857 5.339429 14.006857 0.950857 2.285715a30.006857 30.006857 0 0 0 56.228571-20.534858l-0.859428-2.596571-5.485714-14.336-2.285715-5.686857a209.298286 209.298286 0 0 0-124.781714-117.522286l-5.888-1.938286-14.628571-4.589714a23.771429 23.771429 0 0 1-12.306286-36.352l1.499428-1.901714 55.369143-63.872a23.771429 23.771429 0 0 1 37.504 29.092571l-1.590857 2.048-32.219428 37.156572a257.078857 257.078857 0 0 1 138.349714 133.595428l2.742857 6.363429 2.505143 6.308571 5.613714 14.628572a77.549714 77.549714 0 0 1-44.690286 100.169143 77.641143 77.641143 0 0 1-97.005714-37.632l-1.682286-3.492572-1.462857-3.565714-5.613714-14.628572a101.613714 101.613714 0 0 0-55.753143-57.490285l-4.516571-1.755429-4.278857-1.444571-40.704-12.763429a113.408 113.408 0 0 1-40.338286-22.509714C153.6 555.574857 146.340571 489.453714 180.845714 441.782857l2.816-3.730286 3.145143-3.785142 139.794286-161.298286z" fill="#f4ea2a" p-id="17686"></path></svg>