<?xml version="1.0" standalone="no"?><!DOCTYPE svg PUBLIC "-//W3C//DTD SVG 1.1//EN" "http://www.w3.org/Graphics/SVG/1.1/DTD/svg11.dtd"><svg t="1738701745394" class="icon" viewBox="0 0 1033 1024" version="1.1" xmlns="http://www.w3.org/2000/svg" p-id="53798" data-spm-anchor-id="a313x.search_index.0.i78.46b13a81rM646g" xmlns:xlink="http://www.w3.org/1999/xlink" width="201.7578125" height="200"><path d="M956.841113 655.71985a336.094527 336.094527 0 0 1-175.477925 46.870325 481.278217 481.278217 0 0 1-342.953598-137.18144 414.402265 414.402265 0 0 1-114.317866-305.800292 503.570201 503.570201 0 0 1 41.726021-189.767657A48.013504 48.013504 0 0 0 297.227025 7.537549 544.153043 544.153043 0 0 0 0.000573 493.38848a532.721256 532.721256 0 0 0 546.4394 530.434899 544.153043 544.153043 0 0 0 477.277092-305.228703 48.013504 48.013504 0 0 0-10.288608-57.158933 47.441914 47.441914 0 0 0-57.158933-6.287483m-409.257961 315.517311A480.135038 480.135038 0 0 1 53.72997 493.38848a489.852057 489.852057 0 0 1 253.785663-430.406766 548.725758 548.725758 0 0 0-39.439664 194.911961 465.273715 465.273715 0 0 0 131.465546 342.953599 532.149667 532.149667 0 0 0 381.821673 153.75753 386.394388 386.394388 0 0 0 185.766533-45.155557 488.708878 488.708878 0 0 1-420.118158 259.501556M648.182874 333.915056h57.158933l-67.447541 90.882704a26.293109 26.293109 0 0 0-2.857946 28.007877 26.864699 26.864699 0 0 0 24.006752 14.861323h122.891706a26.864699 26.864699 0 0 0 23.435162-13.146555 25.149931 25.149931 0 0 0 0-26.864698 26.864699 26.864699 0 0 0-23.435162-13.146555h-68.59072l69.733898-90.882703a26.293109 26.293109 0 0 0 2.857947-28.007878 27.436288 27.436288 0 0 0-24.006752-15.432912h-114.317866a26.864699 26.864699 0 0 0 0 53.729397m214.345999-240.639108h84.023632l-93.740651 114.317866a26.293109 26.293109 0 0 0-3.429536 28.579467 27.436288 27.436288 0 0 0 24.006752 15.432912h122.891707a26.864699 26.864699 0 0 0 23.435162-13.718144 26.864699 26.864699 0 0 0-23.435162-40.011253h-66.304363l93.74065-114.317866a26.864699 26.864699 0 0 0 5.715894-29.151056 26.293109 26.293109 0 0 0-24.006752-14.861323h-142.325744a26.864699 26.864699 0 1 0 0 53.729397" fill="#a686ba" p-id="53799" data-spm-anchor-id="a313x.search_index.0.i76.46b13a81rM646g" class=""></path></svg>