<?xml version="1.0" standalone="no"?><!DOCTYPE svg PUBLIC "-//W3C//DTD SVG 1.1//EN" "http://www.w3.org/Graphics/SVG/1.1/DTD/svg11.dtd"><svg t="1738701342767" class="icon" viewBox="0 0 1024 1024" version="1.1" xmlns="http://www.w3.org/2000/svg" p-id="26576" xmlns:xlink="http://www.w3.org/1999/xlink" width="200" height="200"><path d="M511.967 127.067c12.5 0 22.8 9 25 20.8l0.4 4.6v102.3c90.5 5.6 180.9 40.6 254.7 89.3l103.8-103.8c9.9-9.9 26-9.9 35.9 0 8.8 8.8 9.8 22.5 2.9 32.4l-2.9 3.5-98.1 98.1c76.3 61.1 126.7 136 126.7 201.2 0 138.7-228.3 321.5-448.4 321.5s-448.3-182.8-448.3-321.5c0-71.8 61.2-155.4 150.8-219.4l-79.9-79.9-2.9-3.5c-6.9-9.9-5.9-23.6 2.9-32.4 9.9-9.9 26-9.9 35.9 0l87.5 87.6c68.5-40.1 148.6-68.1 228.7-73.1v-102.3c0-14 11.3-25.4 25.3-25.4z m0 177.7c-80.1 0-161.7 27.7-230 67.8-7.2 4.5-18.4 11.3-26.5 16.7-83.3 55.6-141.1 128.7-141.1 186.2 0 107.9 203.4 270.7 397.6 270.7s397.6-162.8 397.6-270.7-203.4-270.7-397.6-270.7z m0 118.4c84.1 0 152.3 68.2 152.3 152.3s-68.2 152.3-152.3 152.3-152.3-68.2-152.3-152.3 68.2-152.3 152.3-152.3z m0 50.8c-56.1 0-101.5 45.4-101.5 101.5s45.4 101.5 101.5 101.5 101.5-45.4 101.5-101.5-45.4-101.5-101.5-101.5z" fill="#a686ba" p-id="26577"></path></svg>