<?xml version="1.0" standalone="no"?><!DOCTYPE svg PUBLIC "-//W3C//DTD SVG 1.1//EN" "http://www.w3.org/Graphics/SVG/1.1/DTD/svg11.dtd"><svg t="1738044714988" class="icon" viewBox="0 0 1024 1024" version="1.1" xmlns="http://www.w3.org/2000/svg" p-id="38428" data-spm-anchor-id="a313x.search_index.0.i41.16383a81Ry3oLP" xmlns:xlink="http://www.w3.org/1999/xlink" width="200" height="200"><path d="M836.1 185.9c-8.3-0.3-16 4.5-19.4 12.1l-0.1 0.3-101.7 218.4-111.4 14.9-145.8-146.1c-5.8-5.8-14.6-7.4-22.1-4.3-7.6 3.2-12.5 10.6-12.5 18.8 0 5.4 2 10.6 5.8 14.4l144.5 144.7-25 17.8-59.8 41.6-96.8-56-223.6 65.1c-11 3.2-17.5 14.6-14.5 25.7 1.4 5.1 4.7 9.4 9.3 12.1 4.6 2.6 10 3.3 15.1 1.8l180.7-51.7c15.4-4.4 32.1-1.3 44.9 8.3l97.3 73.3-215.5 151c-4.6 3.1-7.7 7.9-8.7 13.4-1 5.4 0.3 11.1 3.6 15.5 6.6 9.1 19.3 11.2 28.4 4.6l0.2-0.2 228.5-160.2 25.1-18.4 136.2-102.2 31.8-25.1c2-1.8 3.6-4 4.8-6.5l118.1-253.7c3-6.2 2.8-13.5-0.8-19.4-3.4-6-9.7-9.7-16.6-10z m-19.9-30.7c20.9-7.8 44.4-2.1 59.4 14.4s18.5 40.5 8.7 60.5L766.4 483.4c-3.2 6.9-7.9 13-13.6 18l-0.3 0.3-33 26.1-136.6 102.4-25.6 18.8-228.5 160.3c-18 13-42.1 13.8-60.9 2-18.8-11.8-28.5-33.8-24.6-55.7 2.5-14.5 10.8-27.3 23-35.6L443 596.1l-59.7-45c-4.3-3.2-9.8-4.2-15-2.8L187.6 600c-13.9 4-28.8 2.2-41.4-4.9-12.6-7.1-21.8-19-25.5-33-7.8-29.1 9.2-59 38.1-67.2l228.1-66.5c2.1-0.6 4.3-0.9 6.5-0.9 2.7 0 5.4 0.4 7.9 1.4l1.5 0.5 2.6 1.6 81.4 47.2 33.8-23.5-116-116.3c-19.5-21.6-18.7-54.6 1.8-75.2 20.6-20.6 53.6-21.4 75.2-1.9l0.1 0.1 133.9 134.1 76.1-10.2L785.5 184c6-13.3 17-23.7 30.7-28.8zM393.4 427.5l0.2 17.1-0.2-17.1z m95.4 342.6l-81.4 21.5v22.1l81.4-22.1v-21.5z m-80.2 59.1l-6.6 18 44.7-4.1 6.4-17.6-44.5 3.7z m0 0" p-id="38429" fill="#f4ea2a" data-spm-anchor-id="a313x.search_index.0.i42.16383a81Ry3oLP" class=""></path><path d="M628.2 206.7c-28.3 0-51.2 22.9-51.2 51.2 0 28.3 22.9 51.2 51.2 51.2s51.2-22.9 51.2-51.2c0-28.2-22.9-51.2-51.2-51.2z m-85.4 51.2c0-30.5 16.3-58.7 42.7-73.9 26.4-15.2 58.9-15.2 85.3 0s42.7 43.4 42.7 73.9c0 47.1-38.2 85.3-85.3 85.3-47.1 0.1-85.3-38.1-85.4-85.3z m0 0" p-id="38430" fill="#f4ea2a" data-spm-anchor-id="a313x.search_index.0.i43.16383a81Ry3oLP" class=""></path></svg>