<?xml version="1.0" standalone="no"?><!DOCTYPE svg PUBLIC "-//W3C//DTD SVG 1.1//EN" "http://www.w3.org/Graphics/SVG/1.1/DTD/svg11.dtd"><svg t="1738043541327" class="icon" viewBox="0 0 1024 1024" version="1.1" xmlns="http://www.w3.org/2000/svg" p-id="9651" xmlns:xlink="http://www.w3.org/1999/xlink" width="200" height="200"><path d="M554.927026 919.440808A51.396538 51.396538 0 0 1 563.117709 947.212344v25.595885a51.191771 51.191771 0 0 1-102.383542 0v-25.595885a51.396538 51.396538 0 0 1 8.190684-27.771536 460.725938 460.725938 0 1 1 86.002175 0z" fill="#FB2A2A" p-id="9652"></path><path d="M563.117709 230.527551m-76.787656 0a76.787656 76.787656 0 1 0 153.575313 0 76.787656 76.787656 0 1 0-153.575313 0Z" fill="#FFFFFF" p-id="9653"></path><path d="M639.905366 332.911093l179.171198 230.362969-51.191771 25.595885-102.383542-127.979427-76.787656 127.979427h-153.575313l-127.979427 127.979427-25.595886-51.19177 127.979427-127.979428h102.383542v-51.191771h-204.767083v-51.191771l153.575312-25.595885 51.191771 25.595885h51.191771v-51.191771z" fill="#FFFFFF" p-id="9654"></path></svg>