<?xml version="1.0" standalone="no"?><!DOCTYPE svg PUBLIC "-//W3C//DTD SVG 1.1//EN" "http://www.w3.org/Graphics/SVG/1.1/DTD/svg11.dtd"><svg t="1738094809546" class="icon" viewBox="0 0 1553 1024" version="1.1" xmlns="http://www.w3.org/2000/svg" p-id="1541" data-spm-anchor-id="a313x.search_index.0.i1.20ed3a81787LWx" xmlns:xlink="http://www.w3.org/1999/xlink" width="303.3203125" height="200"><path d="M160.807194 327.821241a136.933517 136.933517 0 0 0-27.965793 80.013242v377.538207c0 36.510897 29.519448 65.253517 65.253518 65.253517h201.198344a65.147586 65.147586 0 0 0 65.253518-65.253517 65.147586 65.147586 0 0 0-65.253518-65.253518H264.125263v-139.828965l318.499311 242.370207a136.333241 136.333241 0 0 0 83.897379 27.965793c4.660966 0 10.098759 0 14.759724-0.776828 3.884138 0.776828 7.768276 0.776828 11.652414 0.776828 16.313379 0 31.849931-4.660966 45.056-13.206069l342.580966-214.404414 342.580965 214.404414c13.982897 8.545103 29.519448 13.206069 45.056 13.206069a83.685517 83.685517 0 0 0 72.244966-40.395035c12.429241-17.867034 16.313379-40.395034 10.875586-62.923034a86.757517 86.757517 0 0 0-38.064552-53.601104l-386.08331-241.593379a86.686897 86.686897 0 0 0-45.056-13.206069h-4.660966c-16.313379 0-31.849931 4.660966-45.056 13.206069l-264.898207 165.464276c-5.437793-5.437793-10.875586-10.875586-17.090207-15.536552L355.014091 301.409103a136.333241 136.333241 0 0 0-83.897379-27.965793 139.122759 139.122759 0 0 0-110.309518 54.377931zM0.003884 132.06069a132.06069 132.06069 0 1 0 264.121379 0 132.06069 132.06069 0 1 0-264.121379 0z m1530.350345 832.759172H23.308712a22.881103 22.881103 0 0 0-23.304828 23.304828v2.330482c0 13.206069 10.098759 23.304828 23.304828 23.304828h1507.045517c13.206069 0 23.304828-10.098759 23.304828-23.304828v-2.330482a22.881103 22.881103 0 0 0-23.304828-23.304828z" p-id="1542" data-spm-anchor-id="a313x.search_index.0.i0.20ed3a81787LWx" class="selected" fill="#d81e06"></path></svg>