<?xml version="1.0" standalone="no"?><!DOCTYPE svg PUBLIC "-//W3C//DTD SVG 1.1//EN" "http://www.w3.org/Graphics/SVG/1.1/DTD/svg11.dtd"><svg t="1738699586658" class="icon" viewBox="0 0 1024 1024" version="1.1" xmlns="http://www.w3.org/2000/svg" p-id="6004" xmlns:xlink="http://www.w3.org/1999/xlink" width="200" height="200"><path d="M512 917.333333c-6.4 0-14.933333-4.266667-17.066667-10.666666-6.4-10.666667-4.266667-23.466667 6.4-29.866667 68.266667-42.666667 132.266667-93.866667 189.866667-149.333333l14.933333-14.933334c78.933333-76.8 211.2-206.933333 211.2-354.133333 0-70.4-36.266667-134.4-93.866666-172.8-46.933333-32-102.4-42.666667-160-32-55.466667 10.666667-104.533333 42.666667-134.4 89.6-6.4 10.666667-19.2 12.8-29.866667 6.4-10.666667-6.4-12.8-19.2-6.4-29.866667C571.733333 102.4 731.733333 72.533333 846.933333 149.333333 917.333333 196.266667 960 275.2 960 358.4c0 164.266667-140.8 302.933333-224 386.133333l-14.933333 14.933334c-59.733333 57.6-125.866667 110.933333-198.4 155.733333-2.133333 0-6.4 2.133333-10.666667 2.133333z" fill="#333333" p-id="6005"></path><path d="M512 917.333333c-4.266667 0-8.533333-2.133333-10.666667-4.266666-70.4-44.8-136.533333-98.133333-196.266666-155.733334l-14.933334-14.933333C204.8 661.333333 64 524.8 64 358.4 64 275.2 106.666667 196.266667 177.066667 149.333333c55.466667-38.4 123.733333-51.2 192-38.4 66.133333 12.8 123.733333 51.2 162.133333 108.8 6.4 10.666667 4.266667 23.466667-6.4 29.866667-10.666667 6.4-23.466667 4.266667-29.866667-6.4-32-46.933333-78.933333-78.933333-134.4-89.6-55.466667-10.666667-110.933333 0-157.866666 32C142.933333 224 106.666667 290.133333 106.666667 358.4c0 147.2 132.266667 277.333333 211.2 354.133333l14.933333 14.933334c57.6 55.466667 121.6 106.666667 189.866667 149.333333 10.666667 6.4 12.8 19.2 6.4 29.866667-2.133333 6.4-10.666667 10.666667-17.066667 10.666666z" fill="#333333" p-id="6006"></path><path d="M535.466667 693.333333c-8.533333 0-17.066667-6.4-21.333334-14.933333l-83.2-268.8-40.533333 78.933333c-4.266667 6.4-10.666667 12.8-19.2 12.8H192c-12.8 0-21.333333-8.533333-21.333333-21.333333s8.533333-21.333333 21.333333-21.333333h166.4l57.6-115.2c4.266667-8.533333 12.8-12.8 21.333333-12.8s17.066667 6.4 19.2 14.933333l78.933334 253.866667 40.533333-128c2.133333-8.533333 10.666667-14.933333 21.333333-14.933334h234.666667c12.8 0 21.333333 8.533333 21.333333 21.333334s-8.533333 21.333333-21.333333 21.333333H610.133333L554.666667 678.4c-2.133333 8.533333-10.666667 14.933333-19.2 14.933333z" fill="#f4ea2a" p-id="6007" data-spm-anchor-id="a313x.search_index.0.i28.46b13a81rM646g" class="selected"></path></svg>