<?xml version="1.0" standalone="no"?><!DOCTYPE svg PUBLIC "-//W3C//DTD SVG 1.1//EN" "http://www.w3.org/Graphics/SVG/1.1/DTD/svg11.dtd"><svg t="1738043874980" class="icon" viewBox="0 0 1024 1024" version="1.1" xmlns="http://www.w3.org/2000/svg" p-id="14944" xmlns:xlink="http://www.w3.org/1999/xlink" width="200" height="200"><path d="M981.152 496.928c-7.52-46.784-23.936-93.968-48.4-134.656a103.776 103.776 0 0 1-68.608 70.416c4.88 10.448 9.12 21.2 12.816 32.144a807.568 807.568 0 0 1-49.024-0.32c-25.856-35.76-79.952-55.152-124.064-20.832-10.96-23.728-19.264-48.016-23.696-73.504 19.616 1.168 39.2 2.672 58.64 5.344a102.32 102.32 0 0 1 5.232-93.312c-37.936-4.496-76.256-5.808-114.352-8.944-26.112-2.128-46.064 22.96-46.832 46.832-2.208 66.032 16.88 127.568 46.768 185.104-29.968 24.096-57.888 45.76-88.576 70.672-39.056-39.056-84.256-72.704-129.392-103.168-23.52-15.872-50.992-6.496-70.96 9.168l-183.664 144.16c-9.28 7.28-15.072 15.456-18 23.824H87.232c-75.536 0-75.536 117.088 0 117.088h444.88c12.704 0 23.2-3.376 31.616-8.864a85.472 85.472 0 0 0 36.976-19.136c81.648-70.656 133.968-106.144 215.648-176.8 1.888-1.632 3.568-3.312 5.232-4.976 38.176 1.76 76.608 0.752 114.448-0.976 32.736-1.472 50.064-28.56 45.12-59.264z m-597.136 98.72c23.2 16.528 46.256 34.448 67.024 54.224h-136.144l69.12-54.224z" fill="#1296db" p-id="14945"></path><path d="M835.904 419.216a91.2 91.2 0 0 0 91.088-91.12 91.2 91.2 0 0 0-91.088-91.088 91.2 91.2 0 0 0-91.088 91.088 91.2 91.2 0 0 0 91.088 91.12z" fill="#1296db" p-id="14946"></path></svg>