<?xml version="1.0" standalone="no"?><!DOCTYPE svg PUBLIC "-//W3C//DTD SVG 1.1//EN" "http://www.w3.org/Graphics/SVG/1.1/DTD/svg11.dtd"><svg t="1738044019780" class="icon" viewBox="0 0 1024 1024" version="1.1" xmlns="http://www.w3.org/2000/svg" p-id="17428" data-spm-anchor-id="a313x.search_index.0.i12.16383a81Ry3oLP" xmlns:xlink="http://www.w3.org/1999/xlink" width="200" height="200"><path d="M385.024 218.624a108.032 107.52 90 1 0 215.04 0 108.032 107.52 90 1 0-215.04 0Z" p-id="17429" fill="#f4ea2a"></path><path d="M326.144 310.272c43.008-15.872 115.2 28.672 128.512 77.824 8.704 32.768 117.76 72.192 117.76 72.192l208.384 50.176c5.632 1.536 6.144 9.728 0.512 11.776l-55.296 25.6-182.272-22.016L414.72 507.392c-11.264-3.072-23.552 1.536-29.184 11.264-20.48 33.792-67.584 91.136-62.464 123.904 6.656 43.008 162.304 69.632 162.304 69.632L773.12 732.16c10.24 0.512 18.944-7.168 18.944-17.408v-7.168c0-8.192 6.144-15.36 14.848-15.872 9.216-0.512 16.896 6.656 16.896 15.872v92.672c0 9.728-7.68 17.92-17.92 18.432L179.2 826.368s-75.776-16.896-90.112-140.288 199.168-361.984 237.056-375.808z" p-id="17430" fill="#f4ea2a" data-spm-anchor-id="a313x.search_index.0.i14.16383a81Ry3oLP" class=""></path><path d="M863.744 516.608h53.248v330.24h94.208v46.08H7.168v-46.08h856.576z" p-id="17431" fill="#e6e6e6" data-spm-anchor-id="a313x.search_index.0.i11.16383a81Ry3oLP" class=""></path></svg>