<?xml version="1.0" standalone="no"?><!DOCTYPE svg PUBLIC "-//W3C//DTD SVG 1.1//EN" "http://www.w3.org/Graphics/SVG/1.1/DTD/svg11.dtd"><svg t="1738764584465" class="icon" viewBox="0 0 1024 1024" version="1.1" xmlns="http://www.w3.org/2000/svg" p-id="21611" xmlns:xlink="http://www.w3.org/1999/xlink" width="200" height="200"><path d="M970.304 706.432v221.696h-79.0144v-100.864H132.672v100.864H53.6448V706.304a48.1536 48.1536 0 0 1-47.36-48.512V363.136a64.1024 64.1024 0 0 1 63.2192-64.64 62.6432 62.6432 0 0 1 48.0896 22.912L338.176 548.864 487.68 395.52l63.4496 31.872-65.6 125.696h53.5168l61.1968-117.12h204.096a102.0416 102.0416 0 0 1 86.9248 49.92v-41.856a63.232 63.232 0 1 1 126.4384 0V657.92a48.1536 48.1536 0 0 1-47.3984 48.512z m-818.496-5.12a17.1648 17.1648 0 0 0-17.2288 17.024v3.84a17.088 17.088 0 0 0 17.2288 17.024h720.384a17.088 17.088 0 0 0 17.2288-17.024v-3.84a17.1648 17.1648 0 0 0-17.2288-17.024H151.808z m56.7296-355.584a16.2944 16.2944 0 0 1 7.8976-27.264c48.768-10.368 80.64-18.688 129.152 5.632l96.1792 49.92-103.68 106.24z m0-64.128a92.8256 92.8256 0 1 1 90.88-92.8 91.8528 91.8528 0 0 1-90.88 92.8z" fill="#1296db" p-id="21612" data-spm-anchor-id="a313x.search_index.0.i11.ee193a818SSIGM" class="selected"></path></svg>