<?xml version="1.0" standalone="no"?><!DOCTYPE svg PUBLIC "-//W3C//DTD SVG 1.1//EN" "http://www.w3.org/Graphics/SVG/1.1/DTD/svg11.dtd"><svg t="1734323930421" class="icon" viewBox="0 0 1536 1024" version="1.1" xmlns="http://www.w3.org/2000/svg" p-id="5804" xmlns:xlink="http://www.w3.org/1999/xlink" width="300" height="200"><path d="M1472 1024C1436.672 1024 1408 995.328 1408 960 1408 960 1408 768 1408 768 1408 768 128 768 128 768 128 768 128 960 128 960 128 995.328 99.328 1024 64 1024 28.672 1024 0 995.328 0 960 0 960 0 64 0 64 0 28.672 28.672 0 64 0 99.328 0 128 28.672 128 64 128 64 128 512 128 512 128 512 224 512 224 512 206.336 512 192 497.664 192 480 192 462.336 206.336 448 224 448 224 448 480 448 480 448 497.664 448 512 462.336 512 480 512 497.664 497.664 512 480 512 480 512 1408 512 1408 512 1408 512 1408 384 1408 384 1408 348.672 1436.672 320 1472 320 1507.328 320 1536 348.672 1536 384 1536 384 1536 960 1536 960 1536 995.328 1507.328 1024 1472 1024ZM576 448C576 357.76 576 285.12 576 192 576 192 1252.544 192 1252.544 192 1303.04 192 1344 235.008 1344 288 1344 340.992 1341.824 448 1344 448 1344 448 576 448 576 448ZM352 384C263.616 384 192 312.384 192 224 192 135.616 263.616 64 352 64 440.384 64 512 135.616 512 224 512 312.384 440.384 384 352 384Z" p-id="5805"></path></svg>