<?xml version="1.0" standalone="no"?><!DOCTYPE svg PUBLIC "-//W3C//DTD SVG 1.1//EN" "http://www.w3.org/Graphics/SVG/1.1/DTD/svg11.dtd"><svg t="1738095542968" class="icon" viewBox="0 0 1024 1024" version="1.1" xmlns="http://www.w3.org/2000/svg" p-id="6784" xmlns:xlink="http://www.w3.org/1999/xlink" width="200" height="200"><path d="M390.212267 384.034133L275.933867 467.968a29.218133 29.218133 0 0 0-11.912534 21.879467l-17.578666 114.688a28.808533 28.808533 0 0 0 4.983466 23.483733 29.115733 29.115733 0 0 0 40.96 6.212267 28.945067 28.945067 0 0 0 11.9808-22.016l16.418134-104.1408 42.359466-30.651734M466.8416 673.0752l87.415467-36.283733 101.341866 73.796266a28.4672 28.4672 0 0 0 43.554134-11.229866 28.535467 28.535467 0 0 0-9.728-34.6112L565.930667 574.805333c-18.466133-15.803733-34.2016-8.874667-34.2016-8.874666l-67.515734 26.9312" fill="#d81e06" p-id="6785"></path><path d="M489.6768 596.992l87.415467-36.283733 101.341866 73.796266a28.4672 28.4672 0 0 0 43.554134-11.229866 28.535467 28.535467 0 0 0-9.728-34.6112l-123.4944-89.9072c-18.466133-15.837867-34.2016-8.9088-34.2016-8.9088l-67.4816 26.862933" fill="#d81e06" p-id="6786"></path><path d="M505.173333 290.133333m-68.266666 0a68.266667 68.266667 0 1 0 136.533333 0 68.266667 68.266667 0 1 0-136.533333 0Z" fill="#d81e06" p-id="6787"></path><path d="M494.8992 627.268267c-8.226133 44.987733-49.390933 75.127467-91.921067 67.413333-42.530133-7.748267-70.417067-50.517333-62.2592-95.5392l15.6672-177.425067c8.226133-44.987733 49.390933-75.1616 91.9552-67.413333 42.530133 7.748267 70.417067 50.517333 62.225067 95.5392l-15.6672 177.425067z" fill="#d81e06" p-id="6788"></path></svg>