<?xml version="1.0" standalone="no"?><!DOCTYPE svg PUBLIC "-//W3C//DTD SVG 1.1//EN" "http://www.w3.org/Graphics/SVG/1.1/DTD/svg11.dtd"><svg t="1738043911016" class="icon" viewBox="0 0 1024 1024" version="1.1" xmlns="http://www.w3.org/2000/svg" p-id="15196" data-spm-anchor-id="a313x.search_index.0.i7.16383a81Ry3oLP" xmlns:xlink="http://www.w3.org/1999/xlink" width="200" height="200"><path d="M355.941712 786.414907l224.153176 0c19.600407 0 35.491329-15.890922 35.491329-35.491329 0-19.600407-15.890922-35.491329-35.491329-35.491329L383.820666 715.432249 318.712809 448.258257c-4.63967-19.045775-23.850198-30.708396-42.886763-26.076912-19.040658 4.63967-30.717605 23.842011-26.076912 42.886763l71.711252 294.260907C325.332577 775.225053 339.578022 786.414907 355.941712 786.414907z" fill="#545667" p-id="15197"></path><path d="M753.076614 862.064864c6.5246 0 13.149485-1.442862 19.409049-4.497431 22.026666-10.739599 31.171953-37.298488 20.432355-59.320037l-80.700997-165.487032c-7.43432-15.246239-22.913872-24.920576-39.876196-24.920576l-187.838086 0L459.44811 483.563344l53.237505 36.795021c5.411243 3.739161 11.584849 6.229888 18.074657 7.286963l121.165594 19.781532c24.179702 3.933589 46.985104-12.455683 50.933019-36.635385 3.946892-24.183795-12.455683-46.985104-36.635385-50.931996l-111.310132-18.174941-135.463228-93.620237c-14.886035-10.281157-34.525328-10.502192-49.628304-0.550539-15.107069 9.951653-22.659069 28.082592-19.084661 45.815465l53.965076 267.642666c4.176113 20.704554 22.36845 35.595706 43.48949 35.595706l196.424648 0 68.548212 140.566456C720.851679 852.897064 736.64334 862.064864 753.076614 862.064864z" fill="#545667" p-id="15198" data-spm-anchor-id="a313x.search_index.0.i6.16383a81Ry3oLP" class="selected"></path><path d="M382.123001 242.983034m-76.656891 0a74.911 74.911 0 1 0 153.313781 0 74.911 74.911 0 1 0-153.313781 0Z" fill="#545667" p-id="15199"></path></svg>