<?xml version="1.0" standalone="no"?><!DOCTYPE svg PUBLIC "-//W3C//DTD SVG 1.1//EN" "http://www.w3.org/Graphics/SVG/1.1/DTD/svg11.dtd"><svg t="1738045532728" class="icon" viewBox="0 0 1024 1024" version="1.1" xmlns="http://www.w3.org/2000/svg" p-id="41685" xmlns:xlink="http://www.w3.org/1999/xlink" width="200" height="200"><path d="M387.2 243.2c67.2 0 121.6-54.4 121.6-121.6S454.4 0 387.2 0C320 0 265.6 54.4 265.6 121.6S320 243.2 387.2 243.2zM752 518.4H563.2l-54.4-169.6c-32-144-233.6-99.2-211.2 38.4l64 185.6C368 624 406.4 656 467.2 656c0 0 217.6-9.6 233.6 6.4 6.4 6.4 6.4 204.8 6.4 291.2 0 92.8 134.4 92.8 134.4 3.2V611.2c0-44.8-28.8-92.8-89.6-92.8zM617.6 691.2H460.8c-92.8 0-108.8-16-128-105.6-16-67.2-54.4-140.8-54.4-140.8-12.8-67.2-105.6-44.8-96 19.2 0 0 41.6 80 57.6 150.4 35.2 160 51.2 176 204.8 176h172.8c67.2 0 67.2-99.2 0-99.2z" p-id="41686"></path></svg>