<?xml version="1.0" standalone="no"?><!DOCTYPE svg PUBLIC "-//W3C//DTD SVG 1.1//EN" "http://www.w3.org/Graphics/SVG/1.1/DTD/svg11.dtd"><svg t="1738095025844" class="icon" viewBox="0 0 1024 1024" version="1.1" xmlns="http://www.w3.org/2000/svg" p-id="2527" data-spm-anchor-id="a313x.icontype_histories.0.i6.5d063a81mofigx" xmlns:xlink="http://www.w3.org/1999/xlink" width="200" height="200"><path d="M379.8016 605.696c0-39.3728-32.2048-71.5776-71.5776-71.5776H256.6144c-16.3328 0-29.5936 13.2608-29.5936 29.5936v52.0192h152.832v-10.0352z" p-id="2528" data-spm-anchor-id="a313x.icontype_histories.0.i7.5d063a81mofigx" class="" fill="#2c2c2c"></path><path d="M204.9024 637.7984V365.9776h-38.4v419.84h25.9072l39.68-97.6896h556.4928l39.68 97.6896h25.9072V637.7984z" p-id="2529"></path><path d="M510.4128 598.9376c-13.4656-5.9904-52.0192-25.2928-68.5056-34.816-4.5568-2.6624-7.0656-9.5232-7.0656-9.5232-19.0464 22.6304-37.0176 45.7216-36.096 61.1328h145.5616l-33.8944-16.7936zM538.5216 530.3296l54.3744 23.9616 1.1264 0.768c17.5616 11.8272 22.9376 34.8672 12.2368 52.4288-1.8944 3.1232-4.1984 5.888-6.8096 8.2944h197.5296c3.4816 0 6.4512-0.0512 10.1888 0 33.2288 0.3072 33.3824-40.8064 18.176-62.5664-52.8384-75.5712-88.0128-42.496-214.9888-42.496-9.5232 0-38.144-37.0688-60.4672-27.5968-0.4608 0.9216-0.6656 24.9856-11.3664 47.2064z" p-id="2530" data-spm-anchor-id="a313x.icontype_histories.0.i1.5d063a81mofigx" class="selected" fill="#2c2c2c"></path><path d="M442.697151 333.570562a62.5152 62.5152 0 1 0 106.361197-65.725921 62.5152 62.5152 0 1 0-106.361197 65.725921Z" p-id="2531" data-spm-anchor-id="a313x.icontype_histories.0.i2.5d063a81mofigx" class="" fill="#d81e06"></path><path d="M434.5344 535.6544v-0.6144l8.192-100.5568c1.6384-19.7632 18.432-35.2768 38.2464-35.2768 2.2528 0 4.5568 0.2048 6.8096 0.6144 19.2512 3.4304 33.024 21.8624 31.3856 41.9328l-5.9392 72.6528c-0.2048 2.2528 0.7168 4.4032 2.3552 5.888l11.4176 5.0688s11.4176-9.984 12.544-56.32c0-29.2864-2.8672-42.7008-14.0288-61.3376-13.6192-22.7328-45.7216-34.9184-61.7984-33.8944-12.544 0.768-22.9888 8.6016-29.7472 14.4384-13.8752 11.9808-21.1456 39.5776-21.1968 62.4128-0.0512 22.5792 1.2288 70.4 8.8576 100.1984l12.9024-15.2064z" p-id="2532" data-spm-anchor-id="a313x.icontype_histories.0.i4.5d063a81mofigx" class="" fill="#d81e06"></path><path d="M503.9104 440.4736c0.9728-11.9808-6.912-23.4496-18.7904-25.5488a23.08096 23.08096 0 0 0-27.0848 20.7872l-8.192 100.5568c-0.6656 8.1408 3.1232 15.9744 9.8816 20.5312l100.864 49.8176a23.12192 23.12192 0 0 0 32.5632-7.1168c6.5024-10.7008 2.6624-24.6784-7.68-31.6928l-77.568-34.1504a22.53824 22.53824 0 0 1-9.8816-20.5312l5.888-72.6528z" p-id="2533" data-spm-anchor-id="a313x.icontype_histories.0.i3.5d063a81mofigx" class="" fill="#d81e06"></path></svg>