<?xml version="1.0" standalone="no"?><!DOCTYPE svg PUBLIC "-//W3C//DTD SVG 1.1//EN" "http://www.w3.org/Graphics/SVG/1.1/DTD/svg11.dtd"><svg t="1734324640654" class="icon" viewBox="0 0 1263 1024" version="1.1" xmlns="http://www.w3.org/2000/svg" p-id="1486" xmlns:xlink="http://www.w3.org/1999/xlink" width="246.6796875" height="200"><path d="M1134.464046 1024v-102.716181H128.922195v102.716181H0V400.040502a64.461098 64.461098 0 0 1 128.922195 0v356.914518h1005.513366v-53.921723a64.461098 64.461098 0 0 1 128.922196 0v320.966703zM175.580294 597.781969a102.801636 102.801636 0 1 1 102.830121 103.029514 102.915575 102.915575 0 0 1-102.830121-103.029514z m231.809286 97.560433v-190.022087h551.750535c154.700937 10.283012 128.922195 190.022087 128.922195 190.022087z m-91.151354-298.663106v-17.945423l82.605914-68.790787H318.744889v-19.227239h125.33311v17.916938l-82.748338 68.790787h85.454394v19.255724z m198.368133-71.981085l116.388884-140.999749-134.106428 25.266015-6.124232-32.159336 209.448719-39.47993 5.69696 29.966007-116.417369 140.99975 142.908231-26.946619 6.124231 32.159337-218.222036 41.160533z m247.817742-100.836184l3.674539-37.913266 189.252997-128.608863-169.740911-16.435728L789.37072 0.199394l265.164983 25.636318-3.703023 37.913266-189.110574 128.722801 180.878467 17.518151-3.987872 40.704776z" fill="#2c2c2c" p-id="1487"></path></svg>