<?xml version="1.0" standalone="no"?><!DOCTYPE svg PUBLIC "-//W3C//DTD SVG 1.1//EN" "http://www.w3.org/Graphics/SVG/1.1/DTD/svg11.dtd"><svg t="1738701227551" class="icon" viewBox="0 0 1024 1024" version="1.1" xmlns="http://www.w3.org/2000/svg" p-id="25922" xmlns:xlink="http://www.w3.org/1999/xlink" width="200" height="200"><path d="M512 512m-512 0a512 512 0 1 0 1024 0 512 512 0 1 0-1024 0Z" fill="#7dc5eb" p-id="25923" data-spm-anchor-id="a313x.search_index.0.i63.46b13a81rM646g" class="selected"></path><path d="M511.010133 375.466667a136.533333 136.533333 0 1 1 0 273.066666 136.533333 136.533333 0 0 1 0-273.066666z m0 54.613333a81.92 81.92 0 1 0 0 163.84 81.92 81.92 0 0 0 0-163.84zM590.370133 676.864l31.1296 85.504-34.2016 12.458667-31.1296-85.538134 34.2016-12.458666z m-158.72 0l34.2016 12.424533-31.1296 85.538134-34.2016-12.458667 31.1296-85.538133z m246.101334-89.6l78.848 45.499733-18.193067 31.5392-78.848-45.499733 18.2272-31.5392z m-333.482667 0l18.193067 31.5392-78.848 45.499733-18.193067-31.5392 78.848-45.499733z m432.469333-140.629333l6.3488 35.874133-89.634133 15.803733-6.314667-35.84 89.634134-15.803733z m-531.456 0l89.6 15.837866-6.314666 35.84L238.933333 482.5088l6.314667-35.84zM672.5632 291.157333l27.886933 23.381334-58.504533 69.7344-27.886933-23.381334 58.504533-69.7344z m-323.1744 0l58.504533 69.7344-27.886933 23.381334L321.536 314.504533l27.886933-23.381333zM529.2032 238.933333v91.0336h-36.386133V238.933333h36.386133z" fill="#FFFFFF" p-id="25924"></path></svg>