<?xml version="1.0" standalone="no"?><!DOCTYPE svg PUBLIC "-//W3C//DTD SVG 1.1//EN" "http://www.w3.org/Graphics/SVG/1.1/DTD/svg11.dtd"><svg t="1738044277769" class="icon" viewBox="0 0 1024 1024" version="1.1" xmlns="http://www.w3.org/2000/svg" p-id="29848" xmlns:xlink="http://www.w3.org/1999/xlink" width="200" height="200"><path d="M373.787642 476.064787v148.45031l-138.212357 312.257548s-40.95181 66.546691 25.594881 87.022596c0 0 46.070786 5.118976 66.546691-35.832833l122.855429-230.35393s25.594881-66.546691 51.189762-46.070786L588.784643 808.79824s20.475905 51.189762 20.475905 184.283144c0 0-10.237952 30.713857 56.308738 30.713857 0 0 46.070786 0 46.070786-30.713857V870.225955s-5.118976-143.331334-133.093381-281.543691v-40.95181l15.356928-117.736453s25.594881-30.713857 40.95181-5.118976c0 0-5.118976 35.832833 66.546691 71.665667l81.903619 30.713857s46.070786 15.356929 56.308738-10.237952c0 0 15.356929-35.832833-10.237952-46.070786l-76.784643-40.95181S665.569286 373.685263 670.688262 296.90062c0 0-15.356929-81.903619-92.141571-107.4985 0 0-35.832833-30.713857-81.90362-10.237953L302.121976 271.305739s-30.713857 15.356929-30.713858 35.832833v194.521096s-5.118976 35.832833 20.475905 35.832833c0 0 46.070786-15.356929 46.070786-25.594881V363.447311s5.118976-10.237952 35.832833-30.713858l35.832834-25.594881s35.832833-25.594881 30.713857 10.237953c0 0-66.546691 97.260548-66.546691 158.688262z m255.948811-307.138572c46.070786 0 87.022595-35.832833 87.022595-87.022596C716.759048 40.95181 675.807239 0 629.736453 0S542.713857 35.832833 542.713857 87.022595c0 46.070786 40.95181 81.903619 87.022596 81.90362z" fill="#515151" p-id="29849"></path></svg>