<?xml version="1.0" standalone="no"?><!DOCTYPE svg PUBLIC "-//W3C//DTD SVG 1.1//EN" "http://www.w3.org/Graphics/SVG/1.1/DTD/svg11.dtd"><svg t="1738044388579" class="icon" viewBox="0 0 1024 1024" version="1.1" xmlns="http://www.w3.org/2000/svg" p-id="35031" xmlns:xlink="http://www.w3.org/1999/xlink" width="200" height="200"><path d="M580.247825 123.930021c-10.718923 44.822763-54.277094 72.081747-97.293296 60.92122-43.036275-11.1806-69.211324-56.565403-58.472328-101.368093 10.718923-44.822763 54.277094-72.061674 97.293296-60.901147 43.036275 11.160527 69.211324 56.54533 58.472328 101.368093z m-33.421361 91.733106l137.760241 86.112696 126.138039-70.114603 0.863134-0.521895a12.64592 12.64592 0 0 1 16.841155 4.295598l0.782843 1.364957 15.275469 30.209699a14.211606 14.211606 0 0 1-2.509112 16.359405l-1.204373 1.063863-154.501032 118.048664-86.955758-50.924921-25.693299 208.637615-104.579755 262.272377-234.270695 197.115776a12.585702 12.585702 0 0 1-19.189683-0.642332l-0.923353-1.264592-21.598429-24.609363a14.31197 14.31197 0 0 1-0.722624-14.051023l0.943426-1.605831 175.437055-192.780032 25.894028-196.353007 51.246088 25.372132-46.930417-53.454105 17.945164-208.637615-70.054385 19.671432-80.974037 122.846085a30.510792 30.510792 0 0 1-41.089205 9.434258 31.976113 31.976113 0 0 1-12.505411-41.209643l73.326266-153.959064 149.302154-92.656458h111.946506z" fill="#515151" p-id="35032"></path><path d="M573.623771 560.194205l230.717794 433.534272a14.251752 14.251752 0 0 1 1.786487 6.684272 13.509055 13.509055 0 0 1-11.280964 13.810148l-1.525539 0.120437-40.747966 0.76277a12.706139 12.706139 0 0 1-9.233529-3.833922l-1.184301-1.344883L509.43067 684.485538l64.213174-124.311406z" fill="#515151" p-id="35033"></path></svg>