<?xml version="1.0" standalone="no"?><!DOCTYPE svg PUBLIC "-//W3C//DTD SVG 1.1//EN" "http://www.w3.org/Graphics/SVG/1.1/DTD/svg11.dtd"><svg t="1738043938441" class="icon" viewBox="0 0 1024 1024" version="1.1" xmlns="http://www.w3.org/2000/svg" p-id="15346" xmlns:xlink="http://www.w3.org/1999/xlink" width="200" height="200"><path d="M820.4288 760.99584a45.17888 45.17888 0 0 0 62.2592-65.536l-171.74528-168.28416c-16.384-169.65632-177.70496-175.45216-198.94272-175.47264s-182.53824 5.81632-198.94272 175.47264L141.312 695.52128a45.17888 45.17888 0 0 0 62.2592 65.536l181.73952-167.69024v172.35968h-132.096a84.62336 84.62336 0 1 0 0 169.2672h517.57056a84.62336 84.62336 0 1 0 0-169.2672h-132.096v-172.4416z" fill="#515151" p-id="15347"></path><path d="M512 217.86624m-106.04544 0a106.04544 106.04544 0 1 0 212.09088 0 106.04544 106.04544 0 1 0-212.09088 0Z" fill="#515151" p-id="15348"></path></svg>