<?xml version="1.0" standalone="no"?><!DOCTYPE svg PUBLIC "-//W3C//DTD SVG 1.1//EN" "http://www.w3.org/Graphics/SVG/1.1/DTD/svg11.dtd"><svg t="1738094938289" class="icon" viewBox="0 0 1024 1024" version="1.1" xmlns="http://www.w3.org/2000/svg" p-id="1618" xmlns:xlink="http://www.w3.org/1999/xlink" width="200" height="200"><path d="M959 741.2V594.6c0-11-9-20-20-20H388.2v-14.7c0-99.4-80.6-180-180-180h-63.3V145.5c0-11-9-20-20-20H85.2c-11.2 0-20.3 9.2-20.3 20.3v750.8c0 0.2 0.1 0.3 0.3 0.3h79.3c0.2 0 0.3-0.1 0.3-0.3V787.1H879v111.4h80V741.2z" fill="#2186F0" p-id="1619"></path><path d="M634.2 286c20.8-9.2 39.5-7 39.7-7-0.4 0-0.6-0.1-0.6-0.1l0.1-0.5h137.1v56.3c0 6.5 7.3 10.3 12.6 6.6l122-95c4.6-3.2 4.6-9.9 0-13.1l-122-97c-5.3-3.7-12.6 0.1-12.6 6.6v55.7H666.7c-1.1 0-2.3 0.1-3.3 0.4-14.4 0.5-34.4 3-56 11.6-36.6 14.5-85.1 49.3-108.7 132.5l77 21.8c11.5-40.2 31.1-66.8 58.5-78.8z" fill="#2186F0" p-id="1620"></path></svg>